<svg xmlns="http://www.w3.org/2000/svg" width="20" height="20" viewBox="0 0 20 20">
    <path fill="#F45A5A" fill-rule="evenodd" d="M7.5 0v1.25h5.625V0h1.25v1.25h2.292c1.84 0 3.333 1.4 3.333 3.125v12.5C20 18.601 18.508 20 16.667 20H3.333C1.493 20 0 18.6 0 16.875v-12.5C0 2.649 1.492 1.25 3.333 1.25H6.25V0H7.5zm11.25 7.5H1.25v9.375c0 1.036.904 1.875 2.02 1.875h13.46c1.116 0 2.02-.84 2.02-1.875V7.5zm-5 4.375a1.25 1.25 0 1 1 0 2.5 1.25 1.25 0 0 1 0-2.5zM6.25 2.5H3.27c-1.116 0-2.02.84-2.02 1.875V6.25h17.5V4.375c0-1.036-.904-1.875-2.02-1.875h-2.355V5h-1.25V2.5H7.5V5H6.25V2.5z"/>
</svg>
