<svg xmlns="http://www.w3.org/2000/svg" width="16" height="16" viewBox="0 0 16 16">
    <path fill="#F45A5A" fill-rule="evenodd" d="M8.174 16h-.359l-.182-.054a1.602 1.602 0 0 1-1.067-.917 3.553 3.553 0 0 0-.409-.69 1.281 1.281 0 0 0-.905-.566 2.402 2.402 0 0 0-1.2.187 1.536 1.536 0 0 1-2.043-1.995c.142-.316.217-.659.22-1.006a1.212 1.212 0 0 0-.207-.75 2.347 2.347 0 0 0-1.045-.792A1.494 1.494 0 0 1 .36 8.96a1.524 1.524 0 0 1 .59-2.394c.284-.11.544-.273.767-.48.249-.193.42-.47.48-.78a2.35 2.35 0 0 0-.184-1.281 1.528 1.528 0 0 1-.034-1.122c.32-.961 1.394-1.203 2.068-.892a2.3 2.3 0 0 0 .998.21 1.2 1.2 0 0 0 .726-.206c.361-.264.64-.626.8-1.044A1.543 1.543 0 0 1 9.429.954c.11.284.273.544.48.767.208.265.51.437.843.48.414.042.831-.025 1.211-.193.36-.157.767-.169 1.136-.034.946.32 1.195 1.391.887 2.061a2.32 2.32 0 0 0-.223.994c-.011.257.059.51.2.725.275.374.653.659 1.088.82.29.11.532.318.684.587.102.208.19.422.266.641v.36c-.014.044-.03.087-.043.132a1.58 1.58 0 0 1-.984 1.136c-.302.12-.574.304-.8.537a1.215 1.215 0 0 0-.395.755c-.04.41.025.823.19 1.2.115.26.155.549.115.832-.16 1.197-1.37 1.559-2.134 1.213a2.368 2.368 0 0 0-.996-.21 1.203 1.203 0 0 0-.769.23 2.45 2.45 0 0 0-.775 1.06c-.086.209-.22.395-.393.543a1.987 1.987 0 0 1-.842.41zm2.76-8.012a2.94 2.94 0 1 0-2.938 2.94 2.953 2.953 0 0 0 2.938-2.94z"/>
</svg>
